<svg xmlns="http://www.w3.org/2000/svg" width="21.815" height="21.814" viewBox="0 0 21.815 21.814">
  <path id="Icon_ionic-ios-call" data-name="Icon ionic-ios-call" d="M25.675,21.583a18.323,18.323,0,0,0-3.828-2.561c-1.147-.551-1.567-.54-2.38.045-.676.488-1.113.943-1.891.772a11.281,11.281,0,0,1-3.8-2.811,11.2,11.2,0,0,1-2.811-3.8c-.165-.784.29-1.215.772-1.891.585-.812.6-1.232.045-2.38A17.961,17.961,0,0,0,9.223,5.131C8.388,4.3,8.2,4.478,7.741,4.642a8.435,8.435,0,0,0-1.357.721,4.094,4.094,0,0,0-1.63,1.721c-.324.7-.7,2,1.21,5.4a30.1,30.1,0,0,0,5.293,7.059h0l.006.006.006.006h0a30.222,30.222,0,0,0,7.059,5.293c3.4,1.908,4.7,1.533,5.4,1.21a4.025,4.025,0,0,0,1.721-1.63,8.435,8.435,0,0,0,.721-1.357C26.328,22.605,26.516,22.418,25.675,21.583Z" transform="translate(-4.49 -4.502)" fill="#fd397f"/>
</svg>
