<svg xmlns="http://www.w3.org/2000/svg" width="126" height="129.818" viewBox="0 0 126 129.818">
  <g id="Group_623" data-name="Group 623" transform="translate(-151 -331)">
    <ellipse id="Ellipse_36" data-name="Ellipse 36" cx="63" cy="64.909" rx="63" ry="64.909" transform="translate(151 331)" fill="#fd397f" opacity="0.55"/>
    <path id="_005-star" data-name="005-star" d="M53.806,24.926A3.945,3.945,0,0,0,51.618,18.2L38.3,16.264a1.739,1.739,0,0,1-1.311-.953L31.037,3.245a3.944,3.944,0,0,0-7.074,0L18.009,15.312a1.741,1.741,0,0,1-1.312.953L3.38,18.2a3.945,3.945,0,0,0-2.187,6.728l9.635,9.392a1.744,1.744,0,0,1,.5,1.542L9.057,49.123a3.861,3.861,0,0,0,.86,3.2,3.986,3.986,0,0,0,4.862.959l11.91-6.262a1.783,1.783,0,0,1,1.621,0l11.911,6.262a3.9,3.9,0,0,0,1.835.459,3.955,3.955,0,0,0,3.026-1.418,3.86,3.86,0,0,0,.86-3.2L43.668,35.861a1.743,1.743,0,0,1,.5-1.542Z" transform="translate(187.001 368.953)" fill="#fff"/>
  </g>
</svg>
