<svg xmlns="http://www.w3.org/2000/svg" width="154.318" height="154.318" viewBox="0 0 154.318 154.318">
  <g id="Group_620" data-name="Group 620" transform="translate(-1296 -1450)">
    <circle id="Ellipse_39" data-name="Ellipse 39" cx="63" cy="63" r="63" transform="matrix(0.966, -0.259, 0.259, 0.966, 1296, 1482.611)" fill="#fd397f" opacity="0.55"/>
    <g id="_008-delete" data-name="008-delete" transform="matrix(0.966, -0.259, 0.259, 0.966, 1340, 1508.15)">
      <path id="Path_2126" data-name="Path 2126" d="M52.822,10.77,36.257,27.336,52.822,43.9A6.308,6.308,0,1,1,43.9,52.824L27.335,36.257,10.768,52.824A6.308,6.308,0,0,1,1.849,43.9L18.413,27.336,1.848,10.77a6.308,6.308,0,0,1,8.919-8.922L27.335,18.415,43.9,1.848a6.308,6.308,0,0,1,8.921,8.922Z" transform="translate(0 -0.002)" fill="#fff"/>
    </g>
  </g>
</svg>
