<svg xmlns="http://www.w3.org/2000/svg" xmlns:xlink="http://www.w3.org/1999/xlink" width="141" height="141" viewBox="0 0 141 141">
  <defs>
    <filter id="Rectangle_706" x="0" y="0" width="141" height="141" filterUnits="userSpaceOnUse">
      <feOffset dx="4" dy="14" input="SourceAlpha"/>
      <feGaussianBlur stdDeviation="14" result="blur"/>
      <feFlood flood-opacity="0.051"/>
      <feComposite operator="in" in2="blur"/>
      <feComposite in="SourceGraphic"/>
    </filter>
  </defs>
  <g id="Group_60" data-name="Group 60" transform="translate(-244 -544)">
    <g transform="matrix(1, 0, 0, 1, 244, 544)" filter="url(#Rectangle_706)">
      <rect id="Rectangle_706-2" data-name="Rectangle 706" width="57" height="57" rx="28.5" transform="translate(38 28)" fill="#fff"/>
    </g>
    <g id="back_time_copy_3" data-name="back time copy 3" transform="translate(295.076 585)">
      <rect id="back_time_copy_3-2" data-name="back time copy 3" width="32" height="32" transform="translate(-0.076)" fill="none"/>
      <path id="Vector" d="M24.577,12.629c0,6.963-5.4,12.629-12.049,12.629A12.178,12.178,0,0,1,.9,15.961a1.417,1.417,0,0,1-.04-.53,1.4,1.4,0,0,1,.157-.506,1.339,1.339,0,0,1,.331-.4,1.27,1.27,0,0,1,.454-.238,1.235,1.235,0,0,1,.506-.037,1.252,1.252,0,0,1,.481.17,1.313,1.313,0,0,1,.381.351,1.382,1.382,0,0,1,.223.478,9.974,9.974,0,0,0,3.392,5.265,9.206,9.206,0,0,0,5.741,2.038,9.71,9.71,0,0,0,9.464-9.92,9.712,9.712,0,0,0-9.466-9.92A9.362,9.362,0,0,0,4.918,6.754L6.53,6.337A1.241,1.241,0,0,1,7.5,6.5a1.351,1.351,0,0,1,.581.831,1.41,1.41,0,0,1-.145,1.019,1.3,1.3,0,0,1-.787.617L2.7,10.118a1.239,1.239,0,0,1-1.106-.249,1.364,1.364,0,0,1-.458-.741L.035,4.46A1.409,1.409,0,0,1,.189,3.443a1.3,1.3,0,0,1,.792-.609,1.24,1.24,0,0,1,.972.152,1.349,1.349,0,0,1,.589.825l.31,1.309A11.922,11.922,0,0,1,12.528,0c6.644,0,12.049,5.665,12.049,12.629Z" transform="translate(3.039 3.999)" fill="#3acae0"/>
      <path id="Vector-2" data-name="Vector" d="M1.291,0a1.442,1.442,0,0,1,.494.087A1.314,1.314,0,0,1,2.2.334a1.14,1.14,0,0,1,.28.37,1.023,1.023,0,0,1,.1.436V4.28l1.962.827a1.2,1.2,0,0,1,.661.649,1.017,1.017,0,0,1-.053.871,1.25,1.25,0,0,1-.736.583,1.451,1.451,0,0,1-.987-.047L.733,6.025A1.251,1.251,0,0,1,.2,5.605,1.042,1.042,0,0,1,0,5V1.14A1.023,1.023,0,0,1,.1.7a1.14,1.14,0,0,1,.28-.37A1.314,1.314,0,0,1,.8.087,1.442,1.442,0,0,1,1.291,0Z" transform="translate(14.465 11.493)" fill="#3acae0"/>
    </g>
  </g>
</svg>
