<svg xmlns="http://www.w3.org/2000/svg" width="155.306" height="158.006" viewBox="0 0 155.306 158.006">
  <g id="Group_1305" data-name="Group 1305" transform="translate(-1265 -945)">
    <ellipse id="Ellipse_36" data-name="Ellipse 36" cx="63" cy="64.909" rx="63" ry="64.909" transform="matrix(0.966, 0.259, -0.259, 0.966, 1298.599, 945)" fill="#fd397f" opacity="0.55"/>
    <path id="Icon_awesome-heart" data-name="Icon awesome-heart" d="M49.661,5.538C43.774.522,35.019,1.424,29.616,7L27.5,9.18,25.384,7C19.991,1.424,11.226.522,5.339,5.538A15.424,15.424,0,0,0,4.276,27.871L25.061,49.333a3.368,3.368,0,0,0,4.866,0L50.713,27.871A15.415,15.415,0,0,0,49.661,5.538Z" transform="matrix(0.966, 0.259, -0.259, 0.966, 1322.747, 991.531)" fill="#fff"/>
  </g>
</svg>
