<svg xmlns="http://www.w3.org/2000/svg" xmlns:xlink="http://www.w3.org/1999/xlink" width="67" height="67" viewBox="0 0 67 67">
  <defs>
    <filter id="Ellipse_33" x="0" y="0" width="67" height="67" filterUnits="userSpaceOnUse">
      <feOffset dy="3" input="SourceAlpha"/>
      <feGaussianBlur stdDeviation="3" result="blur"/>
      <feFlood flood-opacity="0.149"/>
      <feComposite operator="in" in2="blur"/>
      <feComposite in="SourceGraphic"/>
    </filter>
  </defs>
  <g id="Group_1338" data-name="Group 1338" transform="translate(-282 -768)">
    <g transform="matrix(1, 0, 0, 1, 282, 768)" filter="url(#Ellipse_33)">
      <circle id="Ellipse_33-2" data-name="Ellipse 33" cx="24.5" cy="24.5" r="24.5" transform="translate(9 6)" fill="#fff"/>
    </g>
    <path id="Icon_awesome-video" data-name="Icon awesome-video" d="M12.841,4.5H1.826A1.826,1.826,0,0,0,0,6.326V17.341a1.826,1.826,0,0,0,1.826,1.826H12.841a1.826,1.826,0,0,0,1.826-1.826V6.326A1.826,1.826,0,0,0,12.841,4.5Zm7.234,1.44L15.889,8.827v6.012l4.186,2.884A1.225,1.225,0,0,0,22,16.738V6.925A1.225,1.225,0,0,0,20.075,5.94Z" transform="translate(305 786.5)" fill="#ff675d"/>
  </g>
</svg>
