<svg xmlns="http://www.w3.org/2000/svg" xmlns:xlink="http://www.w3.org/1999/xlink" width="67" height="67" viewBox="0 0 67 67">
  <defs>
    <filter id="Ellipse_33" x="0" y="0" width="67" height="67" filterUnits="userSpaceOnUse">
      <feOffset dy="3" input="SourceAlpha"/>
      <feGaussianBlur stdDeviation="3" result="blur"/>
      <feFlood flood-opacity="0.149"/>
      <feComposite operator="in" in2="blur"/>
      <feComposite in="SourceGraphic"/>
    </filter>
  </defs>
  <g id="Group_1365" data-name="Group 1365" transform="translate(-80 -768)">
    <g transform="matrix(1, 0, 0, 1, 80, 768)" filter="url(#Ellipse_33)">
      <circle id="Ellipse_33-2" data-name="Ellipse 33" cx="24.5" cy="24.5" r="24.5" transform="translate(9 6)" fill="#fff"/>
    </g>
    <path id="Icon_awesome-microphone" data-name="Icon awesome-microphone" d="M7.571,15.141A4.129,4.129,0,0,0,11.7,11.012V4.129a4.129,4.129,0,0,0-8.259,0v6.882A4.129,4.129,0,0,0,7.571,15.141Zm6.882-6.882h-.688a.688.688,0,0,0-.688.688v2.065A5.512,5.512,0,0,1,7.02,16.491a5.673,5.673,0,0,1-4.956-5.724V8.947a.688.688,0,0,0-.688-.688H.688A.688.688,0,0,0,0,8.947v1.727A7.808,7.808,0,0,0,6.538,18.49v1.469H4.129a.688.688,0,0,0-.688.688v.688a.688.688,0,0,0,.688.688h6.882a.688.688,0,0,0,.688-.688v-.688a.688.688,0,0,0-.688-.688H8.6V18.506a7.578,7.578,0,0,0,6.538-7.494V8.947A.688.688,0,0,0,14.453,8.259Z" transform="translate(106 787)" fill="#ff675d"/>
  </g>
</svg>
